<?xml version="1.0" encoding="UTF-8" standalone="no"?>
<!DOCTYPE svg PUBLIC "-//W3C//DTD SVG 1.1//EN" "http://www.w3.org/Graphics/SVG/1.1/DTD/svg11.dtd">
<svg width="100%" height="100%" viewBox="0 0 1999 1295" version="1.1" xmlns="http://www.w3.org/2000/svg" xmlns:xlink="http://www.w3.org/1999/xlink" xml:space="preserve" xmlns:serif="http://www.serif.com/" style="fill-rule:evenodd;clip-rule:evenodd;stroke-linecap:round;stroke-linejoin:round;stroke-miterlimit:1.5;">
    <g id="Artboard1" transform="matrix(1.04083,0,0,1.07873,0,0)">
        <rect x="0" y="0" width="1920" height="1200" style="fill:none;"/>
        <clipPath id="_clip1">
            <rect x="0" y="0" width="1920" height="1200"/>
        </clipPath>
        <g clip-path="url(#_clip1)">
            <g id="Background" transform="matrix(0.960772,0,0,0.927018,75.3178,0)">
                <g transform="matrix(1.04083,0,0,1.07873,-78.393,0)">
                    <rect x="0" y="0" width="1920" height="1200" style="fill:rgb(235,235,235);"/>
                </g>
                <g transform="matrix(1.45402,0,0,6.54383,-431.439,-236.848)">
                    <rect x="260" y="40" width="1340" height="190.19" style="fill:none;stroke:black;stroke-width:0.21px;"/>
                </g>
            </g>
            <g id="Connections" transform="matrix(0.960772,0,0,0.927018,75.3178,0)">
                <g transform="matrix(1,0,0,1,301.607,-133.113)">
                    <g transform="matrix(1,-0,-0,1,-380,133.113)">
                        <path d="M787.352,581.132L781.352,593.132L775.352,581.132L787.352,581.132Z"/>
                        <path d="M625,470L781.352,470L781.352,583.532" style="fill:none;stroke:black;stroke-width:1px;"/>
                    </g>
                </g>
                <g transform="matrix(1,-0,-0,1,-78.393,0)">
                    <path d="M456.393,894L468.393,900L456.393,906L456.393,894Z"/>
                    <path d="M781.352,674.142L781.352,840L438.393,840L438.393,900L458.793,900" style="fill:none;stroke:black;stroke-width:1px;"/>
                </g>
                <g transform="matrix(1,-0,-0,1,-78.393,0)">
                    <path d="M906.393,934L918.393,940L906.393,946L906.393,934Z"/>
                    <path d="M728.393,1101.09L838.393,1101.09L838.393,940L908.793,940" style="fill:none;stroke:black;stroke-width:1px;"/>
                </g>
                <g transform="matrix(1,-0,-0,1,-78.393,0)">
                    <path d="M1442.39,752L1448.39,740L1454.39,752L1442.39,752Z"/>
                    <path d="M1398.39,870L1448.39,870L1448.39,749.6" style="fill:none;stroke:black;stroke-width:1px;"/>
                </g>
                <g transform="matrix(1,0,0,1,-288.45,275)">
                    <g transform="matrix(1,-0,-0,1,210.057,-275)">
                        <path d="M197.943,584.028L209.943,590.028L197.943,596.028L197.943,584.028Z"/>
                        <path d="M156.366,590.028L200.343,590.028" style="fill:none;stroke:black;stroke-width:1px;"/>
                    </g>
                </g>
                <g transform="matrix(1,0,0,1,-78.393,0)">
                    <path d="M402.943,361.885L414.943,367.885L402.943,373.885L402.943,361.885Z"/>
                    <path d="M363.988,576.237L363.988,367.885L405.343,367.885" style="fill:none;stroke:black;stroke-width:1px;"/>
                </g>
                <g transform="matrix(1,0,0,1,-78.393,0)">
                    <path d="M402.943,444L414.943,450L402.943,456L402.943,444Z"/>
                    <path d="M484.971,560L390,560L390,450L405.343,450" style="fill:none;stroke:black;stroke-width:1px;"/>
                </g>
                <g transform="matrix(1,0,0,1,123.214,-190)">
                    <g transform="matrix(1,-0,-0,1,-201.607,190)">
                        <path d="M507.607,300.82L501.607,312.82L495.607,300.82L507.607,300.82Z"/>
                        <path d="M270,333.89L270,290L501.607,290L501.607,303.22" style="fill:none;stroke:black;stroke-width:1px;"/>
                    </g>
                </g>
                <g transform="matrix(1,0,0,1,-331.97,-9.17156)">
                    <g transform="matrix(1,-0,-0,1,253.577,9.17156)">
                        <path d="M172.423,321.89L166.423,333.89L160.423,321.89L172.423,321.89Z"/>
                        <path d="M112.846,306.079L166.423,305.856L166.423,324.29" style="fill:none;stroke:black;stroke-width:1px;"/>
                    </g>
                </g>
                <g transform="matrix(1,0,0,1,-261.97,275)">
                    <g transform="matrix(1,-0,-0,1,183.577,-275)">
                        <path d="M439.715,844.5C442.199,844.5 444.215,842.484 444.215,840C444.215,837.516 442.199,835.5 439.715,835.5C437.232,835.5 435.215,837.516 435.215,840C435.215,842.484 437.232,844.5 439.715,844.5Z"/>
                        <path d="M198,689L210,695L198,701L198,689Z"/>
                        <path d="M437.015,840L160,840L160,695L200.4,695" style="fill:none;stroke:black;stroke-width:1px;"/>
                    </g>
                </g>
                <g transform="matrix(1,0,0,1,-37.7713,93.901)">
                    <g transform="matrix(1,-0,-0,1,-40.6217,-93.901)">
                        <path d="M782.315,734.5C784.799,734.5 786.815,732.484 786.815,730C786.815,727.516 784.799,725.5 782.315,725.5C779.832,725.5 777.815,727.516 777.815,730C777.815,732.484 779.832,734.5 782.315,734.5Z"/>
                        <path d="M643.894,695.15L649.858,683.132L655.894,695.114L643.894,695.15Z"/>
                        <path d="M779.615,730L650,730C650,730 649.928,706.444 649.887,692.732" style="fill:none;stroke:black;stroke-width:1px;"/>
                    </g>
                </g>
                <g transform="matrix(1,-0,-0,1,-78.393,0)">
                    <path d="M1616.39,567.76L1628.39,573.76L1616.39,579.76L1616.39,567.76Z"/>
                    <path d="M1568.39,520L1598.39,520L1598.39,573.76L1618.79,573.76" style="fill:none;stroke:black;stroke-width:1px;"/>
                </g>
                <g transform="matrix(1,-0,-0,1,-78.393,0)">
                    <path d="M1616.39,618.328L1628.39,624.328L1616.39,630.328L1616.39,618.328Z"/>
                    <path d="M1568.39,665.771L1598.39,665.771L1598.39,624.328L1618.79,624.328" style="fill:none;stroke:black;stroke-width:1px;"/>
                </g>
                <g transform="matrix(1,-0,-0,1,-78.393,0)">
                    <path d="M1647.3,700.461L1653.3,688.461L1659.3,700.461L1647.3,700.461Z"/>
                    <path d="M1398.39,1074.47L1653.3,1074.47L1653.3,698.061" style="fill:none;stroke:black;stroke-width:1px;"/>
                </g>
                <g transform="matrix(1,0,0,1,-78.393,0)">
                    <path d="M117.036,438.624L129.036,444.624L117.036,450.624L117.036,438.624Z"/>
                    <path d="M1040,1160L1040,1210L90,1210L90,444.624L119.436,444.624" style="fill:none;stroke:black;stroke-width:1px;"/>
                </g>
                <g transform="matrix(1,-0,-0,1,-78.393,0)">
                    <path d="M412.393,234.057L418.393,222.057L424.393,234.057L412.393,234.057Z"/>
                    <path d="M1918.39,670L1958.39,670L1958.39,300L1088.39,300L1088.39,260L418.393,260L418.393,231.657" style="fill:none;stroke:black;stroke-width:1px;"/>
                </g>
                <g transform="matrix(1,0,0,1,-78.393,0)">
                    <path d="M1106.39,674L1118.39,680L1106.39,686L1106.39,674Z"/>
                    <path d="M838.393,940L838.393,760L985,760L985,753L992,753L992,760L1034.93,760L1034.93,680L1108.79,680" style="fill:none;stroke:black;stroke-width:1px;"/>
                </g>
                <g transform="matrix(1,0,0,1,-78.393,0)">
                    <path d="M531.748,695.132L537.748,683.132L543.748,695.132L531.748,695.132Z"/>
                    <path d="M838.393,790L785,790L785,780L777,780L777,790L537.748,790L537.748,692.732" style="fill:none;stroke:black;stroke-width:1px;"/>
                </g>
                <g transform="matrix(1,0,0,1,-78.393,0)">
                    <path d="M1030.43,679.5C1030.43,681.984 1032.45,684 1034.93,684C1037.41,684 1039.43,681.984 1039.43,679.5C1039.43,677.016 1037.41,675 1034.93,675C1032.45,675 1030.43,677.016 1030.43,679.5Z"/>
                    <path d="M1108,594L1120,600L1108,606L1108,594Z"/>
                    <path d="M1034.93,676.8L1034.93,600L1110.4,600" style="fill:none;stroke:black;stroke-width:1px;"/>
                </g>
                <g transform="matrix(1,0,0,1,-78.393,0)">
                    <path d="M1030.43,599.5C1030.43,601.984 1032.45,604 1034.93,604C1037.41,604 1039.43,601.984 1039.43,599.5C1039.43,597.016 1037.41,595 1034.93,595C1032.45,595 1030.43,597.016 1030.43,599.5Z"/>
                    <path d="M1108,524L1120,530L1108,536L1108,524Z"/>
                    <path d="M1034.93,596.8L1034.93,530L1110.4,530" style="fill:none;stroke:black;stroke-width:1px;"/>
                </g>
            </g>
            <g id="Components" transform="matrix(0.960772,0,0,0.927018,75.3178,0)">
                <g transform="matrix(0.974767,0,0,1,408.008,-50)">
                    <rect x="650" y="470" width="460" height="320" style="fill:none;stroke:black;stroke-width:1.01px;"/>
                </g>
                <g transform="matrix(3.02323,0,0,0.568928,-1695.78,-227.396)">
                    <rect x="650" y="470" width="460" height="320" style="fill:none;stroke:black;stroke-width:0.46px;"/>
                </g>
                <g transform="matrix(1.2,0,0,1.375,288,-380)">
                    <rect x="460" y="880" width="400" height="240" style="fill:none;stroke:black;stroke-width:0.77px;"/>
                </g>
                <g transform="matrix(2.10057,0,0,0.885898,126.493,-147.847)">
                    <rect x="100" y="520" width="100" height="200" style="fill:none;stroke:black;stroke-width:0.62px;"/>
                </g>
                <g transform="matrix(2.10057,0,0,1,526.521,-180)">
                    <rect x="100" y="520" width="100" height="200" style="fill:none;stroke:black;stroke-width:0.61px;"/>
                </g>
                <g transform="matrix(2.90057,0,0,1,1259.89,-31.5391)">
                    <rect x="100" y="520" width="100" height="200" style="fill:rgb(235,235,235);stroke:black;stroke-width:0.46px;"/>
                </g>
                <g transform="matrix(2.10057,0,0,0.693816,-78.5073,215.452)">
                    <rect x="100" y="520" width="100" height="200" style="fill:none;stroke:black;stroke-width:0.64px;"/>
                </g>
                <g transform="matrix(2.10057,0,0,0.630551,-158.764,6.00322)">
                    <rect x="100" y="520" width="100" height="200" style="fill:none;stroke:black;stroke-width:0.64px;"/>
                </g>
                <g transform="matrix(2.10057,0,0,0.71566,196.521,167.857)">
                    <rect x="100" y="520" width="100" height="200" style="fill:none;stroke:black;stroke-width:0.64px;"/>
                </g>
                <path d="M200,180.109C200,173.808 194.884,168.692 188.583,168.692L51.417,168.692C45.116,168.692 40,173.808 40,180.109L40,248.583C40,254.884 45.116,260 51.417,260L188.583,260C194.884,260 200,254.884 200,248.583L200,180.109Z" style="fill:none;stroke:black;stroke-width:1px;"/>
                <g transform="matrix(0.330286,0,0,0.546986,11.9155,472.784)">
                    <path d="M200,180.109C200,173.808 191.527,168.692 181.092,168.692L58.908,168.692C48.473,168.692 40,173.808 40,180.109L40,248.583C40,254.884 48.473,260 58.908,260L181.092,260C191.527,260 200,254.884 200,248.583L200,180.109Z" style="fill:none;stroke:black;stroke-width:2.21px;"/>
                </g>
                <g transform="matrix(0.330286,0,0,0.546986,-31.6044,188.612)">
                    <path d="M200,180.109C200,173.808 191.527,168.692 181.092,168.692L58.908,168.692C48.473,168.692 40,173.808 40,180.109L40,248.583C40,254.884 48.473,260 58.908,260L181.092,260C191.527,260 200,254.884 200,248.583L200,180.109Z" style="fill:none;stroke:black;stroke-width:2.21px;"/>
                </g>
                <g transform="matrix(0.510953,0,0,0.894394,641.645,441.599)">
                    <path d="M200,180.109C200,173.808 191.045,168.692 180.015,168.692L59.985,168.692C48.955,168.692 40,173.808 40,180.109L40,248.583C40,254.884 48.955,260 59.985,260L180.015,260C191.045,260 200,254.884 200,248.583L200,180.109Z" style="fill:none;stroke:black;stroke-width:1.37px;"/>
                </g>
                <g transform="matrix(1.3,0,0,1.3,-130,-169.81)">
                    <rect x="400" y="800" width="200" height="200" style="fill:none;stroke:black;stroke-width:0.77px;"/>
                </g>
            </g>
            <g id="Labels" transform="matrix(0.960772,0,0,0.927018,75.3178,0)">
                <g transform="matrix(1,0,0,1,274.452,-49.1554)">
                    <text x="780.8px" y="658.819px" style="font-family:'ArialMT', 'Arial', sans-serif;font-size:24px;">i_RegAddress#2</text>
                </g>
                <g transform="matrix(1,0,0,1,274.452,28.0835)">
                    <text x="780.8px" y="658.819px" style="font-family:'ArialMT', 'Arial', sans-serif;font-size:24px;">i_RegAddress#3</text>
                </g>
                <g transform="matrix(1,0,0,1,543.446,15.1556)">
                    <text x="780.8px" y="658.819px" style="font-family:'ArialMT', 'Arial', sans-serif;font-size:24px;">o_RegV<tspan x="865.749px 879.097px " y="658.819px 658.819px ">al</tspan>ue#2</text>
                </g>
                <g transform="matrix(1,0,0,1,546.587,-128.819)">
                    <text x="780.8px" y="658.819px" style="font-family:'ArialMT', 'Arial', sans-serif;font-size:24px;">o_RegV<tspan x="865.749px 879.097px " y="658.819px 658.819px ">al</tspan>ue#1</text>
                </g>
                <g transform="matrix(1,0,0,1,537.606,67.2454)">
                    <text x="780.8px" y="658.819px" style="font-family:'ArialMT', 'Arial', sans-serif;font-size:24px;">i_RegW<tspan x="865.726px 873.718px " y="658.819px 658.819px ">ri</tspan>te</text>
                </g>
                <g transform="matrix(1,0,0,1,401.186,218.361)">
                    <text x="780.8px" y="658.819px" style="font-family:'ArialMT', 'Arial', sans-serif;font-size:24px;">o_RegW<tspan x="873.741px 881.734px " y="658.819px 658.819px ">ri</tspan>te</text>
                </g>
                <g transform="matrix(1,0,0,1,-327.374,-448.819)">
                    <text x="780.8px" y="658.819px" style="font-family:'ArialMT', 'Arial', sans-serif;font-size:24px;">i_Data</text>
                </g>
                <g transform="matrix(1,0,0,1,4.20672,-448.819)">
                    <text x="780.8px" y="658.819px" style="font-family:'ArialMT', 'Arial', sans-serif;font-size:24px;">o_Data</text>
                </g>
                <g transform="matrix(1,0,0,1,-227.412,448.473)">
                    <text x="780.8px" y="658.819px" style="font-family:'ArialMT', 'Arial', sans-serif;font-size:24px;">o_Data</text>
                </g>
                <g transform="matrix(1,0,0,1,-356.398,-182.614)">
                    <text x="780.8px" y="658.819px" style="font-family:'ArialMT', 'Arial', sans-serif;font-size:24px;">o_Address</text>
                </g>
                <g transform="matrix(1,0,0,1,-34.9613,-221.061)">
                    <text x="780.8px" y="658.819px" style="font-family:'ArialMT', 'Arial', sans-serif;font-size:24px;">o_V<tspan x="821.722px 835.07px " y="658.819px 658.819px ">al</tspan>ue</text>
                </g>
                <g transform="matrix(1,0,0,1,966.151,16.4114)">
                    <text x="780.8px" y="658.819px" style="font-family:'ArialMT', 'Arial', sans-serif;font-size:24px;">o_V<tspan x="821.722px 835.07px " y="658.819px 658.819px ">al</tspan>ue</text>
                </g>
                <g transform="matrix(1,0,0,1,916.897,-123.589)">
                    <text x="780.8px" y="658.819px" style="font-family:'ArialMT', 'Arial', sans-serif;font-size:24px;">o_Underflow</text>
                </g>
                <g transform="matrix(1,0,0,1,930.257,-90.8206)">
                    <text x="780.8px" y="658.819px" style="font-family:'ArialMT', 'Arial', sans-serif;font-size:24px;">o_Overflow</text>
                </g>
                <g transform="matrix(1,0,0,1,913.628,-55.7121)">
                    <text x="780.8px" y="658.819px" style="font-family:'ArialMT', 'Arial', sans-serif;font-size:24px;">o_DivByZero</text>
                </g>
                <g transform="matrix(1,0,0,1,-394.247,-320.849)">
                    <text x="780.8px" y="658.819px" style="font-family:'ArialMT', 'Arial', sans-serif;font-size:24px;">i_Selector</text>
                </g>
                <g transform="matrix(1,0,0,1,47.5543,-132.467)">
                    <text x="780.8px" y="658.819px" style="font-family:'ArialMT', 'Arial', sans-serif;font-size:24px;">i_Selector</text>
                </g>
                <g transform="matrix(1,0,0,1,782.149,18.6536)">
                    <text x="780.8px" y="658.819px" style="font-family:'ArialMT', 'Arial', sans-serif;font-size:24px;">i_Selector</text>
                </g>
                <g transform="matrix(1,0,0,1,-434.172,-283.589)">
                    <text x="780.8px" y="658.819px" style="font-family:'ArialMT', 'Arial', sans-serif;font-size:24px;">i_V<tspan x="813.706px 827.054px " y="658.819px 658.819px ">al</tspan>ue1</text>
                </g>
                <g transform="matrix(1,0,0,1,67.3825,-281.569)">
                    <text x="780.8px" y="658.819px" style="font-family:'ArialMT', 'Arial', sans-serif;font-size:24px;">i_V<tspan x="813.706px 827.054px " y="658.819px 658.819px ">al</tspan>ue1</text>
                </g>
                <g transform="matrix(1,0,0,1,777.606,-78.819)">
                    <text x="780.8px" y="658.819px" style="font-family:'ArialMT', 'Arial', sans-serif;font-size:24px;">i_V<tspan x="813.706px 827.054px " y="658.819px 658.819px ">al</tspan>ue1</text>
                </g>
                <g transform="matrix(1,0,0,1,-434.172,-203.619)">
                    <text x="780.8px" y="658.819px" style="font-family:'ArialMT', 'Arial', sans-serif;font-size:24px;">i_V<tspan x="813.706px 827.054px " y="658.819px 658.819px ">al</tspan>ue2</text>
                </g>
                <g transform="matrix(1,0,0,1,64.2418,-241.569)">
                    <text x="780.8px" y="658.819px" style="font-family:'ArialMT', 'Arial', sans-serif;font-size:24px;">i_V<tspan x="813.706px 827.054px " y="658.819px 658.819px ">al</tspan>ue2</text>
                </g>
                <g transform="matrix(1,0,0,1,779.221,-27.9785)">
                    <text x="780.8px" y="658.819px" style="font-family:'ArialMT', 'Arial', sans-serif;font-size:24px;">i_V<tspan x="813.706px 827.054px " y="658.819px 658.819px ">al</tspan>ue2</text>
                </g>
                <g transform="matrix(1,0,0,1,-538.254,-58.819)">
                    <text x="780.8px" y="658.819px" style="font-family:'ArialMT', 'Arial', sans-serif;font-size:24px;">o_V<tspan x="821.722px 835.07px " y="658.819px 658.819px ">al</tspan>ue</text>
                </g>
                <g transform="matrix(1,0,0,1,-619.99,-298.819)">
                    <text x="780.8px" y="658.819px" style="font-family:'ArialMT', 'Arial', sans-serif;font-size:24px;">o_V<tspan x="821.722px 835.07px " y="658.819px 658.819px ">al</tspan>ue</text>
                </g>
                <g transform="matrix(1,0,0,1,-364.494,-92.614)">
                    <text x="780.8px" y="658.819px" style="font-family:'ArialMT', 'Arial', sans-serif;font-size:24px;">o_V<tspan x="821.722px 835.07px " y="658.819px 658.819px ">al</tspan>ue</text>
                </g>
                <g transform="matrix(1,0,0,1,-637.571,-58.7487)">
                    <text x="780.8px" y="658.819px" style="font-family:'ArialMT', 'Arial', sans-serif;font-size:24px;">i_V<tspan x="813.706px 827.054px " y="658.819px 658.819px ">al</tspan>ue1</text>
                </g>
                <g transform="matrix(1,0,0,1,-722.394,-298.819)">
                    <text x="780.8px" y="658.819px" style="font-family:'ArialMT', 'Arial', sans-serif;font-size:24px;">i_V<tspan x="813.706px 827.054px " y="658.819px 658.819px ">al</tspan>ue1</text>
                </g>
                <g transform="matrix(1,0,0,1,-366.416,11.181)">
                    <text x="780.8px" y="658.819px" style="font-family:'ArialMT', 'Arial', sans-serif;font-size:24px;">i_V<tspan x="813.706px 827.054px " y="658.819px 658.819px ">al</tspan>ue1</text>
                </g>
                <g transform="matrix(1,0,0,1,-635.229,42.9774)">
                    <text x="780.8px" y="658.819px" style="font-family:'ArialMT', 'Arial', sans-serif;font-size:24px;">i_V<tspan x="813.706px 827.054px " y="658.819px 658.819px ">al</tspan>ue2</text>
                </g>
                <g transform="matrix(1,0,0,1,-721.152,-208.819)">
                    <text x="780.8px" y="658.819px" style="font-family:'ArialMT', 'Arial', sans-serif;font-size:24px;">i_V<tspan x="813.706px 827.054px " y="658.819px 658.819px ">al</tspan>ue2</text>
                </g>
                <g transform="matrix(1,0,0,1,-265.172,11.181)">
                    <text x="780.8px" y="658.819px" style="font-family:'ArialMT', 'Arial', sans-serif;font-size:24px;">i_V<tspan x="813.706px 827.054px " y="658.819px 658.819px ">al</tspan>ue2</text>
                </g>
                <g transform="matrix(1,0,0,1,-489.327,-448.819)">
                    <text x="780.8px" y="658.819px" style="font-family:'ArialMT', 'Arial', sans-serif;font-size:24px;">i_Address</text>
                </g>
                <g transform="matrix(1,0,0,1,-380.832,243.673)">
                    <text x="780.8px" y="658.819px" style="font-family:'ArialMT', 'Arial', sans-serif;font-size:24px;">i_Address</text>
                </g>
                <g transform="matrix(1,0,0,1,697.606,-448.819)">
                    <text x="780.8px" y="658.819px" style="font-family:'ArialMT', 'Arial', sans-serif;font-size:24px;">i_MemRead</text>
                </g>
                <g transform="matrix(1,0,0,1,390.804,261.864)">
                    <text x="780.8px" y="658.819px" style="font-family:'ArialMT', 'Arial', sans-serif;font-size:24px;">o_MemRead</text>
                </g>
                <g transform="matrix(1,0,0,1,82.7386,201.181)">
                    <text x="780.8px" y="658.819px" style="font-family:'ArialMT', 'Arial', sans-serif;font-size:24px;">o_V<tspan x="821.722px 835.07px " y="658.819px 658.819px ">al</tspan>ueSourceSel</text>
                </g>
                <g transform="matrix(1,0,0,1,386.725,336.188)">
                    <text x="780.8px" y="658.819px" style="font-family:'ArialMT', 'Arial', sans-serif;font-size:24px;">o_OprandSel</text>
                </g>
                <g transform="matrix(1,0,0,1,341.374,470.283)">
                    <text x="780.8px" y="658.819px" style="font-family:'ArialMT', 'Arial', sans-serif;font-size:24px;">o_PCUpgradeSel</text>
                </g>
                <g transform="matrix(1,0,0,1,73.7925,490.866)">
                    <text x="780.8px" y="658.819px" style="font-family:'ArialMT', 'Arial', sans-serif;font-size:24px;">o_AddressJumpSel</text>
                </g>
                <g transform="matrix(1,0,0,1,388.073,422.011)">
                    <text x="780.8px" y="658.819px" style="font-family:'ArialMT', 'Arial', sans-serif;font-size:24px;">o_ALUOpSel</text>
                </g>
                <g transform="matrix(1,0,0,1,516.387,-448.819)">
                    <text x="780.8px" y="658.819px" style="font-family:'ArialMT', 'Arial', sans-serif;font-size:24px;">i_MemW<tspan x="875.03px 883.023px " y="658.819px 658.819px ">ri</tspan>te</text>
                </g>
                <g transform="matrix(1,0,0,1,391.882,301.864)">
                    <text x="780.8px" y="658.819px" style="font-family:'ArialMT', 'Arial', sans-serif;font-size:24px;">o_MemW<tspan x="883.046px 891.038px " y="658.819px 658.819px ">ri</tspan>te</text>
                </g>
                <g transform="matrix(1,0,0,1,68.4922,287.538)">
                    <text x="780.8px" y="658.819px" style="font-family:'ArialMT', 'Arial', sans-serif;font-size:24px;">i_OpCode</text>
                </g>
                <g transform="matrix(1,0,0,1,458.317,-186.69)">
                    <text x="780.8px" y="658.819px" style="font-family:'ArialMT', 'Arial', sans-serif;font-size:48px;">Registers</text>
                </g>
                <g transform="matrix(1,0,0,1,58.3172,-536.762)">
                    <text x="780.8px" y="658.819px" style="font-family:'ArialMT', 'Arial', sans-serif;font-size:48px;">Data Memory</text>
                </g>
                <g transform="matrix(1,0,0,1,-363.67,348.525)">
                    <text x="780.8px" y="658.819px" style="font-family:'ArialMT', 'Arial', sans-serif;font-size:48px;">Instruction</text>
                    <text x="804.847px" y="708.389px" style="font-family:'ArialMT', 'Arial', sans-serif;font-size:48px;">Memory</text>
                </g>
                <g transform="matrix(1,0,0,1,-112.083,-8.3303)">
                    <text x="780.8px" y="658.819px" style="font-family:'ArialMT', 'Arial', sans-serif;font-size:48px;">PC</text>
                </g>
                <g transform="matrix(1,0,0,1,-379.154,-234.46)">
                    <text x="780.8px" y="658.819px" style="font-family:'ArialMT', 'Arial', sans-serif;font-size:48px;">MUX</text>
                </g>
                <g transform="matrix(1,0,0,1,-29.1254,-164.46)">
                    <text x="780.8px" y="658.819px" style="font-family:'ArialMT', 'Arial', sans-serif;font-size:48px;">MUX</text>
                </g>
                <g transform="matrix(1,0,0,1,794.481,-121.932)">
                    <text x="780.8px" y="658.819px" style="font-family:'ArialMT', 'Arial', sans-serif;font-size:48px;">ALU</text>
                </g>
                <g transform="matrix(1,0,0,1,-620.009,5.3162)">
                    <text x="780.8px" y="658.819px" style="font-family:'ArialMT', 'Arial', sans-serif;font-size:48px;">Adder</text>
                </g>
                <g transform="matrix(1,0,0,1,-709.123,-248.819)">
                    <text x="780.8px" y="658.819px" style="font-family:'ArialMT', 'Arial', sans-serif;font-size:48px;">AND</text>
                </g>
                <g transform="matrix(1,0,0,1,-323.529,-29.3815)">
                    <text x="780.8px" y="658.819px" style="font-family:'ArialMT', 'Arial', sans-serif;font-size:48px;">Adder</text>
                </g>
                <g transform="matrix(1,0,0,1,-721.826,-430.58)">
                    <text x="780.8px" y="658.819px" style="font-family:'ArialMT', 'Arial', sans-serif;font-size:48px;">Clock</text>
                </g>
                <g transform="matrix(1,0,0,1,-741.742,-51.6114)">
                    <text x="780.8px" y="658.819px" style="font-family:'Arial-ItalicMT', 'Arial', sans-serif;font-style:italic;font-size:24px;">4</text>
                </g>
                <g transform="matrix(1,0,0,1,-785.262,-335.783)">
                    <text x="787.474px" y="658.819px" style="font-family:'Arial-ItalicMT', 'Arial', sans-serif;font-style:italic;font-size:24px;">0</text>
                </g>
                <g transform="matrix(1,0,0,1,137.841,370.595)">
                    <text x="780.8px" y="658.819px" style="font-family:'ArialMT', 'Arial', sans-serif;font-size:48px;">Control</text>
                </g>
                <g transform="matrix(1,0,0,1,-743.199,-580.95)">
                    <text x="780.8px" y="658.819px" style="font-family:'ArialMT', 'Arial', sans-serif;font-size:48px;">CPU</text>
                </g>
                <g transform="matrix(1,0,0,1,274.452,-190.37)">
                    <text x="780.8px" y="658.819px" style="font-family:'ArialMT', 'Arial', sans-serif;font-size:24px;">i_Data</text>
                </g>
                <g transform="matrix(1,0,0,1,-114.874,429.659)">
                    <text x="780.8px" y="658.819px" style="font-family:'Arial-ItalicMT', 'Arial', sans-serif;font-style:italic;font-size:24px;">32</text>
                </g>
                <g transform="matrix(1,0,0,1,-74.0118,41.181)">
                    <text x="780.8px" y="658.819px" style="font-family:'Arial-ItalicMT', 'Arial', sans-serif;font-style:italic;font-size:24px;">32</text>
                </g>
                <g transform="matrix(1,0,0,1,-468.487,220.255)">
                    <text x="780.8px" y="658.819px" style="font-family:'Arial-ItalicMT', 'Arial', sans-serif;font-style:italic;font-size:24px;">32</text>
                </g>
                <g transform="matrix(1,0,0,1,-220.505,-194.112)">
                    <text x="780.8px" y="658.819px" style="font-family:'Arial-ItalicMT', 'Arial', sans-serif;font-style:italic;font-size:24px;">32</text>
                </g>
                <g transform="matrix(1,0,0,1,-696.086,26.181)">
                    <text x="780.8px" y="658.819px" style="font-family:'Arial-ItalicMT', 'Arial', sans-serif;font-style:italic;font-size:24px;">32</text>
                </g>
                <g transform="matrix(1,0,0,1,-529.622,-94.0993)">
                    <text x="780.8px" y="658.819px" style="font-family:'Arial-ItalicMT', 'Arial', sans-serif;font-style:italic;font-size:24px;">32</text>
                </g>
                <g transform="matrix(1,0,0,1,-206.029,64.9969)">
                    <text x="780.8px" y="658.819px" style="font-family:'Arial-ItalicMT', 'Arial', sans-serif;font-style:italic;font-size:24px;">32</text>
                </g>
                <g transform="matrix(1,0,0,1,723.64,-145.444)">
                    <text x="780.8px" y="658.819px" style="font-family:'Arial-ItalicMT', 'Arial', sans-serif;font-style:italic;font-size:24px;">32</text>
                </g>
                <g transform="matrix(1,0,0,1,1062.36,5.71797)">
                    <text x="780.8px" y="658.819px" style="font-family:'Arial-ItalicMT', 'Arial', sans-serif;font-style:italic;font-size:24px;">32</text>
                </g>
                <g transform="matrix(1,0,0,1,179.495,-298.819)">
                    <text x="780.8px" y="658.819px" style="font-family:'Arial-ItalicMT', 'Arial', sans-serif;font-style:italic;font-size:24px;">32</text>
                </g>
                <g transform="matrix(1,0,0,1,181.055,-257.469)">
                    <text x="780.8px" y="658.819px" style="font-family:'Arial-ItalicMT', 'Arial', sans-serif;font-style:italic;font-size:24px;">32</text>
                </g>
                <g transform="matrix(1,0,0,1,5.12578,-415.007)">
                    <text x="780.8px" y="658.819px" style="font-family:'Arial-ItalicMT', 'Arial', sans-serif;font-style:italic;font-size:24px;">32</text>
                </g>
                <g transform="matrix(1,0,0,1,-474.874,-410.341)">
                    <text x="780.8px" y="658.819px" style="font-family:'Arial-ItalicMT', 'Arial', sans-serif;font-style:italic;font-size:24px;">32</text>
                </g>
                <g transform="matrix(1,0,0,1,726.078,-40.6058)">
                    <text x="780.8px" y="658.819px" style="font-family:'Arial-ItalicMT', 'Arial', sans-serif;font-style:italic;font-size:24px;">32</text>
                </g>
                <g transform="matrix(1,0,0,1,591.671,149.806)">
                    <text x="780.8px" y="658.819px" style="font-family:'Arial-ItalicMT', 'Arial', sans-serif;font-style:italic;font-size:24px;">1</text>
                </g>
                <g transform="matrix(1,0,0,1,166.093,153.071)">
                    <text x="780.8px" y="658.819px" style="font-family:'Arial-ItalicMT', 'Arial', sans-serif;font-style:italic;font-size:24px;">1</text>
                </g>
                <g transform="matrix(1,0,0,1,100.283,-91.569)">
                    <text x="780.8px" y="658.819px" style="font-family:'Arial-ItalicMT', 'Arial', sans-serif;font-style:italic;font-size:24px;">1</text>
                </g>
                <g transform="matrix(1,0,0,1,559.488,411.17)">
                    <text x="780.8px" y="658.819px" style="font-family:'Arial-ItalicMT', 'Arial', sans-serif;font-style:italic;font-size:24px;">1</text>
                </g>
                <g transform="matrix(1,0,0,1,157.704,535.492)">
                    <text x="780.8px" y="658.819px" style="font-family:'Arial-ItalicMT', 'Arial', sans-serif;font-style:italic;font-size:24px;">1</text>
                </g>
                <g transform="matrix(1,0,0,1,-760.306,-219.499)">
                    <text x="780.8px" y="658.819px" style="font-family:'Arial-ItalicMT', 'Arial', sans-serif;font-style:italic;font-size:24px;">1</text>
                </g>
                <g transform="matrix(1,0,0,1,-293.548,-381.256)">
                    <text x="780.8px" y="658.819px" style="font-family:'Arial-ItalicMT', 'Arial', sans-serif;font-style:italic;font-size:24px;">1</text>
                </g>
                <g transform="matrix(1,0,0,1,771.671,71.181)">
                    <text x="780.8px" y="658.819px" style="font-family:'Arial-ItalicMT', 'Arial', sans-serif;font-style:italic;font-size:24px;">1</text>
                </g>
                <g transform="matrix(1,0,0,1,-683.439,-77.3975)">
                    <text x="780.8px" y="658.819px" style="font-family:'Arial-ItalicMT', 'Arial', sans-serif;font-style:italic;font-size:24px;">1</text>
                </g>
                <g transform="matrix(1,0,0,1,-732.744,-358.819)">
                    <text x="780.8px" y="658.819px" style="font-family:'Arial-ItalicMT', 'Arial', sans-serif;font-style:italic;font-size:24px;">1</text>
                </g>
                <g transform="matrix(1,0,0,1,-0.952346,267.456)">
                    <text x="780.8px" y="658.819px" style="font-family:'Arial-ItalicMT', 'Arial', sans-serif;font-style:italic;font-size:24px;">[6:0]</text>
                </g>
                <g transform="matrix(1,0,0,1,-6.02894,98.431)">
                    <text x="780.8px" y="658.819px" style="font-family:'Arial-ItalicMT', 'Arial', sans-serif;font-style:italic;font-size:24px;">32</text>
                </g>
                <g transform="matrix(1,0,0,1,186,7.9604)">
                    <text x="780.8px" y="658.819px" style="font-family:'Arial-ItalicMT', 'Arial', sans-serif;font-style:italic;font-size:24px;">[1<tspan x="799.034px 812.382px " y="658.819px 658.819px ">1:</tspan>7]</text>
                </g>
                <g transform="matrix(1,0,0,1,201.75,-68.819)">
                    <text x="757.45px" y="658.819px" style="font-family:'Arial-ItalicMT', 'Arial', sans-serif;font-style:italic;font-size:24px;">[24:20]</text>
                </g>
                <g transform="matrix(1,0,0,1,178.436,-138.602)">
                    <text x="780.8px" y="658.819px" style="font-family:'Arial-ItalicMT', 'Arial', sans-serif;font-style:italic;font-size:24px;">[19:15]</text>
                </g>
                <g transform="matrix(1,0,0,1,274.452,-121.639)">
                    <text x="780.8px" y="658.819px" style="font-family:'ArialMT', 'Arial', sans-serif;font-size:24px;">i_RegAddress#1</text>
                </g>
                <g transform="matrix(1,-0,-0,1,-78.393,0)">
                    <path d="M1092.89,299.5C1092.89,297.016 1090.88,295 1088.39,295C1085.91,295 1083.89,297.016 1083.89,299.5C1083.89,301.984 1085.91,304 1088.39,304C1090.88,304 1092.89,301.984 1092.89,299.5Z"/>
                    <path d="M1037.03,376L1025.03,370L1037.03,364L1037.03,376Z"/>
                    <path d="M1088.39,302.2L1088.39,370L1034.63,370" style="fill:none;stroke:black;stroke-width:1px;"/>
                </g>
                <g transform="matrix(1,-0,-0,1,-78.393,0)">
                    <path d="M1037.03,416L1025.03,410L1037.03,404L1037.03,416Z"/>
                    <path d="M898.393,222.057L898.393,240L1168.39,240L1168.39,295L1178.39,295L1178.39,305L1168.39,305L1168.39,410L1034.63,410" style="fill:none;stroke:black;stroke-width:1px;"/>
                </g>
                <g transform="matrix(1,-0,-0,1,-78.393,0)">
                    <path d="M982.393,552L988.393,540L994.393,552L982.393,552Z"/>
                    <path d="M988.393,830L988.393,549.6" style="fill:none;stroke:black;stroke-width:1px;"/>
                </g>
            </g>
            <g id="Comments" transform="matrix(0.960772,0,0,0.927018,0,0)">
                <g transform="matrix(1,0,0,1,-21.4678,2.73337)">
                    <text x="615.496px" y="560.028px" style="font-family:'ArialMT', 'Arial', sans-serif;font-size:14px;fill:rgb(115,115,115);">Relative</text>
                    <text x="615.496px" y="574.486px" style="font-family:'ArialMT', 'Arial', sans-serif;font-size:14px;fill:rgb(115,115,115);">address jump.</text>
                </g>
                <g transform="matrix(1,0,0,1,-103.984,369.69)">
                    <text x="615.496px" y="560.028px" style="font-family:'ArialMT', 'Arial', sans-serif;font-size:14px;fill:rgb(115,115,115);">Given an instruction address,</text>
                    <text x="615.496px" y="574.486px" style="font-family:'ArialMT', 'Arial', sans-serif;font-size:14px;fill:rgb(115,115,115);">retrieve instruction at that</text>
                    <text x="615.496px" y="588.944px" style="font-family:'ArialMT', 'Arial', sans-serif;font-size:14px;fill:rgb(115,115,115);">address.</text>
                </g>
                <g transform="matrix(1,0,0,1,-295.496,119.972)">
                    <text x="615.496px" y="560.028px" style="font-family:'ArialMT', 'Arial', sans-serif;font-size:14px;fill:rgb(115,115,115);">Increment PC</text>
                    <text x="615.496px" y="574.486px" style="font-family:'ArialMT', 'Arial', sans-serif;font-size:14px;fill:rgb(115,115,115);">address by 4</text>
                    <text x="615.496px" y="588.944px" style="font-family:'ArialMT', 'Arial', sans-serif;font-size:14px;fill:rgb(115,115,115);">bytes.</text>
                </g>
            </g>
        </g>
    </g>
</svg>
